<svg xmlns="http://www.w3.org/2000/svg" version="1.1" xmlns:xlink="http://www.w3.org/1999/xlink" width="2000" height="1500" viewBox="0 0 2000 1500"><rect width="2000" height="1500" x="0" y="0" id="background" stroke="transparent" fill="#000000"></rect><svg xml:space="preserve" width="1500" height="1125" data-version="2" data-id="lg_vW1Guh1MsOWI1hVO3n" viewBox="0 0 554 571" x="250" y="187.5"><rect width="100%" height="100%" fill="transparent"></rect><path fill="#fff" d="M118.63 565.496A113.01 113.01 0 0 1 14.75 407.953l14.27-24.29 163.916-279.31.287-.488 5.6-9.562.2-.344C239.55 29.546 314.721-4.316 389.814 8.007c75.097 12.323 135.5 68.438 153.314 142.423 17.816 73.985-10.428 151.444-71.685 196.597l-.23.143-9.79 6.747-.087.058-279.511 192.227a111.977 111.977 0 0 1-63.195 19.294"></path><path d="M285.302 236.543h12.05v-108.45h-12.05v-39.52h110.62q30.12 0 46.99 12.29t16.87 35.18q0 14.22-6.75 23.98-6.74 9.76-15.78 14.7-9.04 4.94-17.47 6.63v2.41q17.11 1.69 30.84 10.85 13.74 9.15 13.74 32.77 0 25.31-19.04 36.99-19.04 11.69-49.4 11.69h-110.62Zm92.54-68.93q6.99 0 10.49-3.73 3.49-3.74 3.49-11.69v-8.68q0-7.95-3.49-11.69-3.5-3.73-10.49-3.73h-13.01v39.52Zm1.69 68.93q6.99 0 10.48-3.74 3.5-3.73 3.5-11.68v-10.61q0-7.95-3.5-11.69-3.49-3.73-10.48-3.73h-14.7v41.45Z"></path><rect width="179.06" height="187.49" x="-89.53" y="-93.75" fill="none" rx="0" ry="0" transform="translate(375.33 182.82)"></rect></svg></svg>